<?xml version="1.0" standalone="no"?>
<!DOCTYPE svg PUBLIC "-//W3C//DTD SVG 20010904//EN"
 "http://www.w3.org/TR/2001/REC-SVG-20010904/DTD/svg10.dtd">
<svg version="1.0" xmlns="http://www.w3.org/2000/svg"
 width="400.000000pt" height="400.000000pt" viewBox="0 0 400.000000 400.000000"
 preserveAspectRatio="xMidYMid meet">
<metadata>
Created by potrace 1.11, written by Peter Selinger 2001-2013
</metadata>
<g transform="translate(0.000000,400.000000) scale(0.100000,-0.100000)"
fill="#000000" stroke="none">
<path d="M0 3270 c0 -655 2 -733 16 -755 9 -14 19 -23 23 -20 10 6 55 -74 47
-83 -4 -3 -9 4 -13 16 -3 12 -10 19 -16 15 -5 -3 -8 -2 -5 3 3 5 -8 20 -23 32
l-29 24 0 -356 c1 -217 5 -356 11 -356 5 0 9 -12 8 -27 0 -25 -1 -25 -8 -8 -5
11 -9 -62 -10 -168 -1 -104 3 -186 8 -183 4 3 6 -6 3 -19 -2 -14 1 -32 7 -39
9 -11 13 -121 14 -401 2 -358 1 -388 -16 -399 -9 -7 -17 -17 -17 -22 0 -4 5
-3 12 4 7 7 16 12 20 12 11 0 6 -53 -5 -61 -10 -7 2 -79 13 -79 4 0 10 19 13
41 4 32 14 48 41 71 20 16 36 35 36 42 0 7 11 23 25 36 17 16 22 26 13 31 -13
8 -24 509 -11 509 5 0 23 -26 40 -58 18 -31 45 -77 59 -102 60 -101 83 -148
77 -154 -3 -3 -24 -6 -45 -6 -36 0 -85 -30 -71 -44 3 -3 35 -3 72 0 55 4 62 3
41 -7 -14 -6 -36 -12 -50 -13 -15 -1 -25 -7 -25 -16 -1 -37 -31 -109 -62 -147
-18 -23 -33 -44 -33 -47 0 -3 26 -5 58 -6 129 -2 223 -7 229 -13 9 -10 43 -8
43 2 0 5 11 11 25 13 13 3 22 1 19 -3 -14 -23 16 -5 51 31 21 22 41 37 44 35
2 -3 -11 -21 -29 -40 l-34 -35 30 -1 29 -1 -30 -8 c-16 -4 -52 -8 -79 -9 -43
-1 -105 -15 -186 -42 -18 -6 -5 -8 42 -6 37 1 64 -1 60 -5 -4 -4 -47 -9 -97
-11 -49 -3 -124 -12 -165 -21 -41 -9 -80 -14 -87 -12 -7 3 -13 1 -13 -4 0 -5
-16 -12 -35 -16 -25 -4 -35 -11 -35 -25 0 -11 5 -19 12 -19 9 0 9 -3 0 -12 -8
-8 -12 -60 -12 -170 l0 -158 101 0 101 0 86 47 c101 54 103 47 4 -10 l-67 -38
225 5 c240 5 340 21 416 65 19 12 50 21 67 21 30 -1 31 -1 13 -15 -15 -11 -16
-15 -5 -16 8 0 -5 -9 -27 -19 -48 -21 -65 -40 -36 -40 11 0 22 7 26 15 3 8 12
15 20 15 10 0 13 -6 10 -15 -4 -8 -1 -15 5 -15 6 0 11 7 11 15 0 20 17 19 29
-2 10 -17 10 -17 11 0 0 10 -7 20 -15 23 -19 8 -19 30 0 38 48 18 112 17 158
-3 27 -12 57 -21 67 -21 9 0 23 -6 29 -14 10 -12 19 -12 44 -4 18 6 35 16 39
22 5 8 8 7 8 -1 0 -7 7 -13 16 -13 9 0 14 5 11 13 -31 70 -67 170 -63 174 3 3
10 -5 15 -18 34 -88 83 -179 102 -193 13 -9 43 -16 66 -16 l43 0 0 117 c0 118
7 132 30 60 9 -29 9 -42 1 -50 -6 -6 -11 -37 -11 -69 l0 -58 186 0 186 0 57
44 c60 47 89 76 74 76 -5 0 -20 -7 -33 -16 -14 -9 -9 -2 10 15 l35 30 5 -37 5
-37 12 52 c9 36 11 101 6 211 -3 87 -3 170 0 184 5 17 40 53 97 99 84 68 95
80 91 103 -1 4 8 17 20 27 12 11 20 21 18 24 -9 9 -126 -95 -175 -156 l-49
-61 -7 33 c-3 19 -8 63 -10 98 l-3 64 45 27 c93 55 279 150 293 150 9 0 18 6
20 13 4 9 6 8 6 -2 1 -7 -28 -60 -63 -117 -62 -98 -106 -185 -106 -206 0 -6
-7 -24 -15 -41 -8 -18 -23 -65 -33 -105 -10 -40 -22 -69 -25 -65 -4 3 -7 1 -7
-6 0 -6 -9 -30 -19 -51 -11 -22 -17 -50 -14 -62 3 -15 2 -19 -4 -11 -10 15
-53 -119 -53 -166 0 -15 -7 -47 -15 -70 l-14 -41 44 0 c31 0 47 5 55 18 11 16
11 16 6 -1 -4 -12 -2 -17 6 -15 7 3 22 28 33 56 11 29 26 52 32 52 18 0 16
-18 -7 -68 l-19 -42 59 0 c46 0 61 4 69 17 10 17 10 17 11 1 0 -15 10 -18 59
-18 56 0 59 1 55 23 l-5 22 12 -22 c10 -19 20 -23 59 -23 31 0 47 4 47 13 0
13 50 97 58 97 2 0 -7 -24 -20 -52 l-25 -53 137 -3 c125 -2 138 -1 158 18 27
26 44 26 20 1 -17 -20 -12 -20 519 -21 l536 0 1 22 c0 13 5 32 10 43 6 14 7 8
3 -22 -5 -39 -4 -43 15 -43 20 0 21 6 21 78 0 57 -3 73 -11 62 -8 -12 -9 -9
-4 10 4 14 9 54 11 90 4 64 4 65 -10 30 -19 -46 -19 -30 -1 48 10 43 15 113
14 213 l0 149 -65 57 c-35 31 -66 63 -69 72 -3 9 -15 21 -27 26 -12 6 -24 16
-26 23 -6 18 16 7 116 -59 l72 -48 0 264 c0 201 -3 265 -12 268 -10 4 -10 6 0
6 9 1 12 30 12 109 l0 108 -46 22 -46 23 24 18 c12 10 33 21 46 25 22 7 22 10
22 171 l0 164 -42 11 c-24 6 -70 19 -103 30 -60 19 -179 43 -268 55 -26 3 -45
10 -42 16 4 5 -4 8 -17 7 -13 0 -48 9 -78 22 -30 12 -66 26 -80 31 l-25 9 25
-20 c14 -11 30 -20 35 -20 6 0 4 -4 -4 -9 -9 -6 -19 -4 -29 5 -11 11 -17 12
-28 3 -8 -7 -18 -8 -22 -4 -4 4 -2 10 4 12 7 2 10 12 7 22 -5 21 -126 77 -143
66 -34 -21 -1 123 38 168 9 10 37 61 62 113 36 73 49 91 54 77 4 -10 14 -76
22 -147 15 -131 24 -171 24 -102 0 20 6 65 14 99 13 53 21 109 41 272 2 17 7
51 10 77 l7 48 68 -63 c37 -34 89 -77 116 -95 41 -29 44 -30 19 -6 -16 15 -38
45 -48 68 -21 46 -77 199 -74 203 1 1 22 -24 47 -55 25 -31 52 -57 60 -57 8
-1 14 -6 13 -11 -1 -6 4 -11 12 -11 10 0 11 4 2 19 -7 10 -18 16 -25 13 -7 -3
-10 0 -7 5 9 15 -74 136 -91 132 -8 -2 -14 2 -14 8 0 6 5 8 10 5 14 -9 12 1
-5 36 -9 16 -20 27 -25 24 -5 -3 -8 3 -8 12 1 10 -14 54 -34 98 -43 95 -61
150 -56 169 3 16 135 -139 162 -192 9 -18 21 -30 25 -28 4 3 18 -5 31 -19 12
-13 27 -22 34 -20 6 3 37 -32 69 -76 32 -45 60 -79 63 -76 3 3 -26 52 -65 110
-38 59 -75 123 -82 144 -6 21 -36 89 -66 151 -57 121 -64 145 -33 117 11 -10
23 -16 26 -12 3 3 40 -10 82 -29 41 -19 77 -33 79 -30 2 2 -13 19 -34 37 -89
79 -164 161 -245 269 -48 63 -85 116 -83 118 2 2 16 -3 32 -11 31 -17 336
-127 350 -127 4 1 -10 11 -33 23 -65 35 -129 91 -280 244 -124 127 -144 143
-173 143 -30 0 -32 -2 -20 -17 13 -16 13 -16 -11 0 -23 16 -87 17 -821 17
l-797 0 -44 -69 c-72 -115 -69 -113 -62 -57 7 58 13 78 24 71 4 -3 11 2 14 11
15 39 -23 1 -75 -76 -31 -45 -63 -87 -72 -92 -10 -5 -17 -15 -17 -23 0 -8 -5
-17 -11 -21 -8 -4 -9 3 -5 25 16 80 15 94 -3 41 -28 -82 -26 -24 3 85 13 50
23 91 22 93 -2 1 -20 -36 -41 -83 -21 -47 -44 -90 -51 -96 -7 -5 -32 -44 -55
-84 -23 -41 -44 -73 -47 -71 -2 3 6 32 18 66 47 131 -7 70 -71 -82 -22 -51
-56 -128 -76 -170 -36 -76 -39 -103 -9 -77 46 40 76 70 76 77 0 4 14 23 30 42
l29 35 -29 -95 c-16 -52 -46 -149 -68 -215 -22 -66 -42 -129 -45 -140 -11 -48
-5 45 8 120 19 102 18 105 -6 75 -12 -14 -16 -26 -10 -28 6 -2 -10 -43 -36
-95 -25 -51 -63 -132 -84 -182 -48 -112 -50 -89 -5 53 19 59 36 121 39 137 3
17 9 39 13 50 4 10 -10 0 -31 -23 -64 -72 -82 -72 -35 0 24 34 54 75 67 89 14
15 26 41 27 61 2 19 6 41 10 49 4 8 1 6 -6 -5 -7 -10 -25 -35 -39 -55 -25 -35
-224 -179 -324 -236 l-50 -28 55 59 c31 33 65 70 75 83 20 24 20 24 0 13 -11
-6 -33 -27 -49 -46 -16 -20 -38 -36 -47 -36 -12 0 8 26 62 79 44 44 86 82 93
84 7 3 32 36 55 74 30 47 36 62 20 48 -16 -14 -13 -6 11 28 19 27 39 51 45 54
5 3 4 0 -2 -8 -7 -7 -13 -17 -13 -23 0 -9 43 44 97 123 18 25 42 59 55 75 12
16 18 27 13 24 -6 -2 -40 -18 -77 -36 -73 -35 -218 -86 -224 -79 -2 2 23 21
57 42 34 21 86 58 115 82 30 23 56 43 60 43 3 0 -4 -15 -16 -32 -16 -25 -13
-23 11 7 58 70 162 175 173 175 6 1 25 12 41 26 29 25 25 26 -24 6 -9 -3 -12
-1 -7 6 12 20 -12 13 -26 -7 -13 -18 -31 -21 -238 -36 -64 -5 -64 -5 -30 9 20
7 55 17 79 21 24 4 71 20 104 36 l62 28 -367 1 -368 0 -1 -22 0 -23 -11 23
c-11 22 -14 22 -199 22 l-189 0 0 -730z m1750 566 c0 -12 -5 -7 -19 24 -11 24
-11 24 3 6 9 -11 16 -24 16 -30z m-1270 -32 c17 -31 30 -58 28 -60 -2 -2 -19
24 -37 56 -18 33 -30 60 -28 60 3 0 19 -25 37 -56z m910 -140 c-30 -88 -31
-88 -25 -34 5 47 42 136 52 126 2 -1 -10 -43 -27 -92z m-841 20 c12 -19 17
-33 12 -30 -5 3 -18 22 -30 42 -12 19 -17 33 -12 30 5 -3 18 -22 30 -42z
m-459 -34 c11 -22 18 -40 15 -40 -2 0 -14 18 -25 40 -11 22 -18 40 -15 40 2 0
14 -18 25 -40z m50 -90 c6 -11 8 -20 6 -20 -3 0 -10 9 -16 20 -6 11 -8 20 -6
20 3 0 10 -9 16 -20z m3311 -22 c11 -21 11 -22 -4 -9 -10 7 -17 17 -17 22 0
15 9 10 21 -13z m-3265 -60 c8 -16 13 -28 10 -28 -5 0 -46 69 -46 78 0 8 15
-13 36 -50z m42 -83 c-3 -3 -9 2 -12 12 -6 14 -5 15 5 6 7 -7 10 -15 7 -18z
m2029 -77 c-3 -8 -6 -5 -6 6 -1 11 2 17 5 13 3 -3 4 -12 1 -19z m1291 -3 c-3
-3 -9 2 -12 12 -6 14 -5 15 5 6 7 -7 10 -15 7 -18z m-1448 -145 c6 -11 8 -20
6 -20 -3 0 -10 9 -16 20 -6 11 -8 20 -6 20 3 0 10 -9 16 -20z m199 -25 l0 -20
-9 20 c-5 11 -9 27 -9 35 -1 13 0 13 9 0 5 -8 9 -24 9 -35z m-1262 3 c-3 -8
-6 -5 -6 6 -1 11 2 17 5 13 3 -3 4 -12 1 -19z m1036 -21 c3 -22 2 -35 -4 -32
-5 4 -9 22 -9 42 0 45 5 40 13 -10z m47 -29 c0 -5 -7 -8 -15 -8 -8 0 -15 6
-15 14 0 8 -3 23 -6 33 -4 13 0 11 15 -7 11 -14 21 -28 21 -32z m-1190 -4 c0
-8 -4 -12 -10 -9 -5 3 -10 13 -10 21 0 8 5 12 10 9 6 -3 10 -13 10 -21z m1445
6 c3 -5 1 -10 -4 -10 -6 0 -11 5 -11 10 0 6 2 10 4 10 3 0 8 -4 11 -10z m-855
-36 c0 -13 -4 -24 -10 -24 -5 0 -10 14 -10 31 0 17 4 28 10 24 6 -3 10 -17 10
-31z m667 -67 c72 -115 72 -115 26 -120 -37 -3 -36 -4 8 -5 44 -2 59 -13 59
-41 0 -11 -113 -1 -125 11 -6 6 -5 12 5 18 13 8 13 10 -2 10 -9 0 -19 10 -23
23 -3 12 -10 31 -14 42 -5 11 -13 48 -18 83 -9 59 -8 62 11 62 15 0 35 -23 73
-83z m237 13 c28 -53 76 -183 76 -207 0 -2 -8 -3 -19 -3 -15 0 -27 25 -61 128
-24 70 -45 133 -48 140 -2 6 0 12 5 12 5 0 26 -32 47 -70z m-1864 56 c0 -2 -8
-10 -17 -17 -16 -13 -17 -12 -4 4 13 16 21 21 21 13z m1496 -178 c9 -16 12
-28 9 -28 -3 0 1 -10 9 -22 22 -30 20 -35 -11 -43 -28 -7 -28 -8 12 -19 35
-10 43 -18 66 -66 16 -33 28 -48 31 -40 3 8 -3 32 -13 52 -11 21 -19 40 -19
43 0 3 17 5 39 5 l38 0 6 -54 c6 -59 27 -112 34 -86 12 43 15 45 27 15 16 -35
53 -71 64 -61 4 4 -5 18 -20 31 -35 30 -44 64 -23 90 15 19 15 19 10 -5 -7
-29 16 -67 33 -56 7 4 12 16 12 27 0 10 5 19 11 19 6 0 9 9 6 20 -8 31 7 24
20 -9 6 -17 7 -33 2 -38 -5 -5 0 -9 11 -9 23 0 24 5 10 42 -9 24 -9 25 5 14
18 -15 21 0 3 18 -9 9 -8 12 6 12 12 0 17 -7 15 -22 -1 -13 1 -35 5 -49 5 -18
2 -38 -9 -59 -25 -48 -113 -78 -143 -48 -8 8 -12 8 -12 1 0 -15 24 -23 69 -23
42 0 74 25 112 87 17 27 24 31 35 22 8 -6 14 -24 14 -39 0 -54 -84 -94 -195
-93 -55 1 -58 0 -40 -14 30 -22 135 -13 166 15 25 24 55 30 43 10 -4 -8 -3
-10 2 -5 5 5 9 14 9 19 0 6 6 13 14 16 9 3 11 0 6 -8 -5 -8 -3 -11 6 -8 8 3
13 13 11 24 -13 95 -17 154 -11 154 11 0 56 -144 70 -224 7 -43 9 -111 6 -175
l-6 -106 15 55 c8 30 20 72 25 93 5 21 14 35 19 32 6 -4 11 2 11 12 1 19 23
-83 34 -159 6 -40 4 -47 -12 -51 -16 -4 -15 -6 5 -12 12 -4 22 -12 22 -17 0
-6 -6 -8 -14 -5 -25 10 -96 -298 -96 -415 l0 -68 -77 -45 c-78 -45 -307 -165
-317 -165 -2 0 20 23 50 52 30 28 77 88 103 132 68 115 183 337 177 343 -3 3
-36 -22 -73 -55 -94 -83 -235 -166 -458 -268 -66 -30 -74 -32 -125 -40 -34 -5
-38 -2 -130 102 -150 170 -289 343 -312 388 -18 36 -88 230 -88 245 0 4 18
-14 40 -39 37 -43 39 -44 40 -19 0 14 -7 49 -16 78 -8 29 -13 59 -10 67 3 8 1
14 -4 14 -6 0 -10 5 -10 11 0 5 5 7 12 3 16 -10 68 -13 68 -3 0 4 9 5 19 2 11
-3 28 0 38 6 15 9 12 10 -19 11 -20 0 -40 5 -43 10 -4 6 -12 10 -18 8 -7 -1
-26 7 -43 17 -27 17 -33 27 -41 80 -6 33 -8 77 -5 98 4 34 7 38 30 35 23 -3
26 -8 29 -43 1 -22 5 -51 8 -64 6 -22 7 -22 19 -6 12 17 13 17 19 -4 3 -11 10
-21 17 -21 6 0 8 6 5 13 -4 6 4 1 16 -13 15 -17 20 -19 16 -7 -4 11 -1 17 9
17 10 0 14 -6 10 -15 -6 -18 5 -20 21 -4 6 6 9 18 6 27 -4 8 -2 13 3 10 5 -4
9 8 8 25 -1 48 -4 54 -15 34 -6 -9 -14 -15 -20 -12 -5 4 -9 -1 -9 -9 0 -10 6
-13 15 -10 17 7 21 -21 5 -31 -5 -3 -10 -1 -10 5 0 6 -4 8 -10 5 -5 -3 -11 4
-11 17 -1 15 -3 18 -6 6 -6 -24 -33 -32 -33 -9 0 22 69 81 94 81 9 0 16 -8 16
-19 0 -11 5 -23 11 -26 5 -4 8 -12 6 -18 -2 -7 0 -20 5 -30 6 -12 3 -29 -8
-52 -19 -40 -25 -45 -68 -56 l-31 -7 33 -1 c37 -1 68 25 78 64 4 17 11 24 20
21 9 -4 14 2 14 15 0 12 4 17 11 13 7 -4 7 1 -1 16 -6 12 -9 24 -7 26 3 3 31
-32 63 -78 69 -98 101 -134 110 -125 4 3 0 17 -8 29 -24 38 -10 53 20 22 47
-46 80 -105 50 -88 -8 4 -10 3 -5 -2 5 -5 12 -9 17 -9 4 0 29 -28 54 -61 40
-54 62 -74 81 -73 3 0 17 -14 32 -31 35 -42 40 -31 10 22 -28 47 -111 287
-103 296 3 2 10 -8 16 -24 46 -123 43 -118 52 -93 6 15 2 67 -11 149 -30 179
-51 357 -50 410 1 45 1 45 26 -35 14 -44 31 -92 39 -107z m-520 95 c4 -26 15
-65 25 -88 36 -78 25 -94 -50 -79 l-32 7 3 61 c2 48 6 60 18 58 12 -3 13 -1 3
9 -7 7 -13 28 -13 46 0 26 4 33 19 33 16 0 21 -10 27 -47z m865 -78 c16 -44
29 -83 29 -87 0 -15 -30 -8 -31 7 -2 18 -4 25 -12 45 -8 19 -37 142 -36 155 0
13 14 -20 50 -120z m-1064 78 c-3 -10 -5 -4 -5 12 0 17 2 24 5 18 2 -7 2 -21
0 -30z m763 -43 c0 -13 -1 -13 -10 0 -5 8 -10 22 -10 30 0 13 1 13 10 0 5 -8
10 -22 10 -30z m-1430 -20 c0 -5 -5 -10 -11 -10 -5 0 -7 5 -4 10 3 6 8 10 11
10 2 0 4 -4 4 -10z m709 -47 c1 -7 -3 -13 -9 -13 -5 0 -10 15 -9 33 0 27 2 29
9 12 5 -11 9 -26 9 -32z m744 17 c3 -13 0 -20 -9 -20 -8 0 -14 10 -14 26 0 28
15 25 23 -6z m-1136 -42 c-3 -8 -6 -5 -6 6 -1 11 2 17 5 13 3 -3 4 -12 1 -19z
m1153 -4 c0 -17 -22 -14 -28 4 -2 7 3 12 12 12 9 0 16 -7 16 -16z m-740 -14
c27 -27 25 -30 -10 -30 -25 0 -30 4 -30 25 0 30 13 32 40 5z m-533 -52 c-3 -7
-5 -2 -5 12 0 14 2 19 5 13 2 -7 2 -19 0 -25z m78 -89 c-13 -45 -28 -86 -34
-92 -6 -6 -2 14 8 44 11 30 22 71 26 92 4 20 11 37 15 37 4 0 -3 -36 -15 -81z
m141 -147 c-18 -119 -47 -264 -53 -259 -1 2 6 62 18 133 20 123 39 296 34 302
-1 1 -17 -19 -34 -45 -45 -69 -88 -119 -96 -111 -4 4 17 35 47 70 30 35 63 77
74 93 l19 30 3 -53 c2 -29 -4 -101 -12 -160z m1940 82 c22 -47 26 -66 22 -122
-3 -56 -9 -76 -36 -115 -17 -26 -32 -51 -32 -56 0 -4 -16 -22 -35 -41 -19 -19
-35 -29 -35 -22 0 6 -7 9 -16 5 -14 -5 -15 -3 -4 16 7 13 17 20 26 17 8 -3 14
1 14 11 0 9 15 49 34 88 32 68 41 104 37 150 -1 17 -3 18 -12 5 -9 -12 -10
-12 -5 3 3 10 1 28 -5 39 -12 23 -3 92 11 83 6 -4 22 -31 36 -61z m-2046 11
c-7 -9 -15 -13 -18 -10 -3 2 1 11 8 20 7 9 15 13 18 10 3 -2 -1 -11 -8 -20z
m2167 -37 c-3 -7 -5 -2 -5 12 0 14 2 19 5 13 2 -7 2 -19 0 -25z m-2867 -8 c6
-11 8 -20 6 -20 -3 0 -10 9 -16 20 -6 11 -8 20 -6 20 3 0 10 -9 16 -20z m48
-66 c-4 -3 -12 5 -18 18 -12 22 -12 22 6 6 10 -10 15 -20 12 -24z m1629 -26
c-3 -8 -6 -5 -6 6 -1 11 2 17 5 13 3 -3 4 -12 1 -19z m1008 2 c4 -6 12 -8 18
-4 7 3 3 -2 -7 -10 -26 -21 -36 -20 -36 4 0 21 15 27 25 10z m-1670 -57 c3
-16 12 -41 20 -58 21 -49 25 -64 15 -70 -17 -10 -60 79 -60 124 0 46 14 48 25
4z m1662 -15 c-8 -24 -12 -28 -15 -15 -5 23 4 47 17 47 6 0 5 -13 -2 -32z
m-1850 -60 c-2 -13 -4 -5 -4 17 -1 22 1 32 4 23 2 -10 2 -28 0 -40z m1740 1
c-8 -27 -19 -45 -31 -47 -15 -3 -14 3 9 48 31 61 40 61 22 -1z m-867 20 c0 -6
-4 -7 -10 -4 -5 3 -10 11 -10 16 0 6 5 7 10 4 6 -3 10 -11 10 -16z m1161 -45
l-9 -39 -1 41 c-1 22 2 44 6 48 12 12 14 -8 4 -50z m-224 24 c-3 -8 -6 -5 -6
6 -1 11 2 17 5 13 3 -3 4 -12 1 -19z m194 -6 c-5 -10 -18 -25 -27 -33 -16 -12
-17 -12 -9 1 10 18 37 50 42 50 2 0 -1 -8 -6 -18z m-2990 -56 c20 -40 20 -40
1 -17 -11 14 -28 38 -38 55 -17 29 -17 30 0 17 10 -8 26 -33 37 -55z m1913 48
c3 -8 2 -12 -4 -9 -6 3 -10 10 -10 16 0 14 7 11 14 -7z m1086 -69 c0 -66 -18
-80 -56 -44 l-24 23 37 38 c20 21 38 38 40 38 2 0 3 -25 3 -55z m-1790 -60 c0
-54 -16 -79 -25 -39 -4 16 -11 45 -16 64 -5 19 -9 44 -9 55 1 17 4 16 25 -10
17 -21 25 -42 25 -70z m1500 45 c0 -24 -46 -74 -59 -66 -13 9 27 86 44 86 8 0
15 -9 15 -20z m31 -13 c-10 -9 -11 -8 -5 6 3 10 9 15 12 12 3 -3 0 -11 -7 -18z
m-1742 -19 c-1 -7 -5 -24 -9 -38 -7 -22 -8 -21 -9 13 -1 20 4 37 9 37 6 0 10
-6 9 -12z m1877 -13 c-9 -14 -23 -36 -32 -50 -9 -13 -12 -30 -8 -36 4 -8 3 -9
-5 -5 -15 9 -63 -92 -55 -117 3 -10 1 -16 -6 -15 -6 2 -17 -13 -24 -32 -6 -19
-17 -44 -24 -55 -21 -36 -14 8 13 84 29 78 52 122 108 199 40 53 62 72 33 27z
m-2529 -62 c-2 -16 -4 -3 -4 27 0 30 2 43 4 28 2 -16 2 -40 0 -55z m-370 25
c-3 -8 -6 -5 -6 6 -1 11 2 17 5 13 3 -3 4 -12 1 -19z m2957 -7 c3 -5 0 -11 -8
-14 -18 -7 -56 3 -56 14 0 12 57 12 64 0z m-2997 -33 c-3 -7 -5 -2 -5 12 0 14
2 19 5 13 2 -7 2 -19 0 -25z m520 -35 c-3 -10 -5 -4 -5 12 0 17 2 24 5 18 2
-7 2 -21 0 -30z m464 1 c14 -17 1 -18 -36 -4 -14 5 -24 14 -21 19 8 12 42 3
57 -15z m2153 17 c-8 -8 -44 -8 -44 1 0 4 11 7 25 6 13 -1 22 -4 19 -7z m66
-5 c0 -2 -7 -7 -16 -10 -8 -3 -12 -2 -9 4 6 10 25 14 25 6z m-3180 -38 c-1
-26 -3 -30 -10 -16 -6 9 -7 23 -4 32 9 25 14 19 14 -16z m3130 22 c-8 -5 -19
-10 -25 -10 -5 0 -3 5 5 10 8 5 20 10 25 10 6 0 3 -5 -5 -10z m-2920 -20 c6
-11 8 -20 6 -20 -3 0 -10 9 -16 20 -6 11 -8 20 -6 20 3 0 10 -9 16 -20z m2775
2 c-3 -3 -11 0 -18 7 -9 10 -8 11 6 5 10 -3 15 -9 12 -12z m228 4 c17 -13 16
-14 -3 -19 -13 -3 -18 -1 -13 6 4 6 0 8 -10 4 -17 -6 -23 4 -10 16 9 10 15 8
36 -7z m-3256 -28 c-3 -8 -6 -5 -6 6 -1 11 2 17 5 13 3 -3 4 -12 1 -19z m550
-45 c-3 -10 -5 -4 -5 12 0 17 2 24 5 18 2 -7 2 -21 0 -30z m2868 25 c14 -6 25
-15 25 -19 0 -11 -38 1 -51 17 -14 17 -8 18 26 2z m-2758 -20 c-3 -8 -6 -5 -6
6 -1 11 2 17 5 13 3 -3 4 -12 1 -19z m-670 -20 c-3 -7 -5 -2 -5 12 0 14 2 19
5 13 2 -7 2 -19 0 -25z m30 -10 c-3 -7 -5 -2 -5 12 0 14 2 19 5 13 2 -7 2 -19
0 -25z m500 -45 c-2 -16 -4 -5 -4 22 0 28 2 40 4 28 2 -13 2 -35 0 -50z m193
-27 c5 -21 5 -35 0 -30 -5 5 -11 32 -13 59 -3 28 -3 41 0 30 2 -11 8 -37 13
-59z m2525 74 c3 -5 2 -10 -4 -10 -5 0 -13 5 -16 10 -3 6 -2 10 4 10 5 0 13
-4 16 -10z m332 -23 c4 -7 0 -8 -13 -3 -10 5 -27 11 -36 13 -10 3 -18 9 -18
14 0 11 58 -10 67 -24z m-3010 -9 c-3 -8 -6 -5 -6 6 -1 11 2 17 5 13 3 -3 4
-12 1 -19z m2723 12 c8 -5 11 -10 5 -10 -5 0 -17 5 -25 10 -8 5 -10 10 -5 10
6 0 17 -5 25 -10z m-3270 -32 c-1 -26 -3 -30 -10 -16 -6 9 -7 23 -4 32 9 25
14 19 14 -16z m3365 12 c3 -5 -1 -10 -10 -10 -9 0 -13 5 -10 10 3 6 8 10 10
10 2 0 7 -4 10 -10z m-758 -47 c-3 -10 -5 -2 -5 17 0 19 2 27 5 18 2 -10 2
-26 0 -35z m798 27 c3 -5 2 -10 -4 -10 -5 0 -13 5 -16 10 -3 6 -2 10 4 10 5 0
13 -4 16 -10z m250 -30 c3 -5 2 -10 -4 -10 -5 0 -13 5 -16 10 -3 6 -2 10 4 10
5 0 13 -4 16 -10z m-3665 -45 c0 -5 -5 -3 -10 5 -5 8 -10 20 -10 25 0 6 5 3
10 -5 5 -8 10 -19 10 -25z m729 -38 c0 -21 -1 -21 -9 -2 -12 28 -12 37 0 30 6
-3 10 -16 9 -28z m1974 -12 c-14 -42 -14 -47 2 -64 13 -15 13 -20 3 -24 -7 -3
-1 -6 13 -6 56 -2 59 -36 16 -138 -18 -43 -29 -55 -60 -68 -20 -8 -44 -15 -52
-15 -14 0 -36 -9 -75 -32 -32 -18 -77 -37 -106 -44 -28 -6 -28 -5 21 47 27 30
81 86 119 126 39 40 67 76 63 79 -4 4 -16 -1 -27 -11 -11 -10 -23 -15 -28 -10
-4 4 -1 10 7 13 8 3 30 20 50 38 27 25 32 34 19 34 -27 0 -25 60 2 67 11 3 20
11 20 17 0 10 19 36 26 36 2 0 -4 -20 -13 -45z m-1856 -17 c-3 -8 -6 -5 -6 6
-1 11 2 17 5 13 3 -3 4 -12 1 -19z m2060 -30 c-3 -7 -5 -2 -5 12 0 14 2 19 5
13 2 -7 2 -19 0 -25z m-310 -45 c-2 -16 -4 -5 -4 22 0 28 2 40 4 28 2 -13 2
-35 0 -50z m-2300 35 c-3 -8 -6 -5 -6 6 -1 11 2 17 5 13 3 -3 4 -12 1 -19z
m1208 -18 c35 -55 31 -59 -10 -10 -38 45 -40 50 -25 50 5 0 21 -18 35 -40z
m-747 -100 c0 -14 -6 0 -13 30 -8 30 -14 64 -13 75 1 27 26 -73 26 -105z
m-130 35 c0 -16 -2 -15 -8 5 -4 14 -8 34 -8 45 0 16 2 15 8 -5 4 -14 8 -34 8
-45z m79 43 c-3 -8 -6 -5 -6 6 -1 11 2 17 5 13 3 -3 4 -12 1 -19z m-149 -43
c0 -16 -2 -15 -8 5 -11 34 -11 60 0 35 5 -11 8 -29 8 -40z m309 33 c-3 -8 -6
-5 -6 6 -1 11 2 17 5 13 3 -3 4 -12 1 -19z m1433 19 c0 -2 -10 -12 -22 -23
l-23 -19 19 23 c18 21 26 27 26 19z m-2020 -29 c0 -16 -3 -19 -11 -11 -6 6 -8
16 -5 22 11 17 16 13 16 -11z m437 -20 c-3 -8 -6 -5 -6 6 -1 11 2 17 5 13 3
-3 4 -12 1 -19z m160 -20 c-3 -7 -5 -2 -5 12 0 14 2 19 5 13 2 -7 2 -19 0 -25z
m1405 -16 c-12 -16 -56 -61 -98 -100 -56 -53 -82 -71 -96 -66 -11 3 -20 0 -24
-10 -3 -9 -16 -16 -27 -16 -16 0 -11 7 24 32 24 17 58 43 74 57 20 18 17 12
-10 -18 -22 -24 -33 -40 -25 -36 33 19 128 107 160 150 36 48 56 55 22 7z
m1054 7 c20 -22 23 -28 8 -19 -18 11 -50 50 -41 50 2 0 16 -14 33 -31z m-511
-5 c14 -15 21 -32 18 -41 -4 -10 -2 -14 5 -9 6 3 14 1 18 -5 4 -8 3 -9 -4 -5
-7 4 -12 1 -12 -6 -1 -20 -60 54 -60 74 0 24 7 23 35 -8z m-2189 -73 c3 -3 3
12 0 34 -5 36 -5 37 4 10 5 -16 8 -36 5 -44 -9 -23 -32 7 -39 49 l-6 35 15
-39 c8 -22 18 -42 21 -45z m-589 47 c-3 -8 -6 -5 -6 6 -1 11 2 17 5 13 3 -3 4
-12 1 -19z m1761 5 c5 -9 16 -14 24 -11 9 4 14 -2 16 -18 3 -37 -17 -39 -52
-5 l-33 32 5 -31 c4 -31 -6 -38 -26 -18 -16 16 -15 55 1 61 26 11 56 6 65 -10z
m-546 -24 c68 -44 53 -48 -18 -4 -33 19 -53 35 -45 35 8 0 36 -14 63 -31z
m1221 -31 c-86 -89 -181 -227 -297 -430 -15 -27 -31 -48 -36 -48 -6 0 -10 -9
-10 -20 0 -11 -4 -20 -10 -20 -5 0 -10 9 -10 20 0 11 -2 20 -5 20 -17 0 -205
-111 -265 -156 -69 -52 -80 -52 -61 -1 9 23 162 123 278 181 51 25 52 25 58 5
4 -11 9 -18 12 -16 2 3 -5 23 -17 46 -11 23 -17 41 -13 41 5 0 3 4 -3 8 -6 4
-25 38 -42 75 -29 62 -36 70 -81 90 -46 20 -69 46 -38 44 20 -2 128 14 187 28
30 7 93 31 140 55 70 35 82 38 65 19 -18 -20 -13 -19 40 10 33 18 80 48 104
67 62 48 63 42 4 -18z m-263 39 c0 -2 -12 -14 -27 -28 l-28 -24 24 28 c23 25
31 32 31 24z m-2023 -39 c-3 -7 -5 -2 -5 12 0 14 2 19 5 13 2 -7 2 -19 0 -25z
m577 -13 c5 -29 4 -36 -3 -25 -6 8 -11 28 -11 44 0 39 6 31 14 -19z m2009 3
c-2 -5 -8 -8 -14 -8 -11 0 -12 33 -2 44 8 8 23 -25 16 -36z m-2333 -4 c0 -8
-5 -12 -10 -9 -6 4 -8 11 -5 16 9 14 15 11 15 -7z m447 -6 c-3 -8 -6 -5 -6 6
-1 11 2 17 5 13 3 -3 4 -12 1 -19z m1844 -1 c-10 -9 -11 -8 -5 6 3 10 9 15 12
12 3 -3 0 -11 -7 -18z m-2081 -3 c0 -8 -5 -12 -10 -9 -6 4 -8 11 -5 16 9 14
15 11 15 -7z m1107 -6 c11 -13 29 -39 41 -58 11 -19 34 -48 51 -64 17 -16 28
-33 25 -37 -6 -10 29 -29 55 -29 11 0 23 -5 27 -11 4 -7 -4 -10 -22 -8 -28 2
-43 -2 -89 -21 -23 -10 -104 -28 -155 -35 -19 -2 -42 -6 -50 -8 -79 -18 -132
-28 -136 -24 -3 2 36 42 86 88 96 87 122 119 97 119 -8 0 -54 -36 -103 -80
-49 -44 -97 -80 -106 -80 -9 0 -27 -15 -39 -32 -13 -18 -46 -61 -74 -95 -87
-106 -110 -137 -145 -188 -18 -27 -53 -73 -77 -102 -40 -48 -57 -83 -32 -68 6
4 9 0 7 -11 -2 -13 2 -18 15 -16 18 3 23 -13 7 -23 -17 -11 8 -45 28 -38 14 5
15 3 5 -8 -18 -18 -16 -32 3 -25 9 3 12 2 9 -5 -12 -18 4 -59 20 -53 11 5 13
2 9 -10 -10 -25 16 -78 34 -71 12 4 13 3 3 -9 -10 -12 -9 -20 6 -42 10 -16 18
-39 18 -53 0 -13 5 -26 10 -28 6 -2 42 17 79 42 67 44 94 55 81 35 -3 -5 -12
-10 -20 -10 -7 0 -15 -4 -17 -8 -1 -5 -34 -32 -73 -62 -38 -29 -88 -70 -110
-91 -45 -42 -192 -139 -209 -139 -16 1 49 56 122 102 34 22 62 44 62 49 0 5
15 22 33 38 26 24 30 32 20 42 -7 7 -13 19 -13 26 0 20 -79 186 -163 344 l-20
37 82 93 c45 52 107 131 138 176 31 46 80 109 109 142 53 57 67 80 42 64 -23
-13 -112 -20 -135 -10 -16 7 -34 6 -62 -3 -60 -19 -69 -7 -17 24 45 26 49 27
115 17 60 -10 75 -8 132 11 52 17 77 34 137 91 39 39 72 66 72 61 0 -6 -5 -15
-11 -21 -7 -7 -3 -9 16 -6 17 4 33 -1 47 -13 l21 -19 -17 27 c-10 15 -14 32
-10 39 4 7 7 25 6 40 -1 35 8 36 35 7z m43 -13 c0 -5 -5 -3 -10 5 -5 8 -10 20
-10 25 0 6 5 3 10 -5 5 -8 10 -19 10 -25z m-1063 3 c-3 -8 -6 -5 -6 6 -1 11 2
17 5 13 3 -3 4 -12 1 -19z m-267 -9 c0 -6 -4 -7 -10 -4 -5 3 -10 11 -10 16 0
6 5 7 10 4 6 -3 10 -11 10 -16z m1595 2 c-3 -6 -11 -11 -17 -11 -6 0 -6 6 2
15 14 17 26 13 15 -4z m-365 -6 c0 -8 -4 -15 -9 -15 -13 0 -22 16 -14 24 11
11 23 6 23 -9z m1069 -49 c0 -44 -5 -68 -15 -77 -11 -9 -14 -8 -14 7 -1 16 -5
14 -26 -11 -23 -27 -26 -28 -21 -7 3 12 1 19 -4 16 -10 -6 -39 54 -39 79 0 14
49 42 58 33 2 -3 14 1 26 9 11 8 24 15 28 15 4 0 7 -29 7 -64z m54 18 c-7 -19
-23 -7 -23 18 0 17 3 18 14 8 8 -6 12 -18 9 -26z m-2605 -9 c-3 -3 -9 2 -12
12 -6 14 -5 15 5 6 7 -7 10 -15 7 -18z m282 4 c0 -6 -4 -7 -10 -4 -5 3 -10 11
-10 16 0 6 5 7 10 4 6 -3 10 -11 10 -16z m-326 -11 c8 -33 7 -40 -4 -33 -6 4
-8 10 -5 15 3 5 1 11 -5 15 -12 8 -13 25 -1 25 5 0 11 -10 15 -22z m270 -30
c-8 -12 -34 18 -34 39 0 15 3 14 19 -7 11 -13 17 -28 15 -32z m1526 48 c0 -3
-4 -8 -10 -11 -5 -3 -10 -1 -10 4 0 6 5 11 10 11 6 0 10 -2 10 -4z m657 -38
c-3 -8 -6 -5 -6 6 -1 11 2 17 5 13 3 -3 4 -12 1 -19z m-2127 -9 c0 -6 -4 -7
-10 -4 -5 3 -10 11 -10 16 0 6 5 7 10 4 6 -3 10 -11 10 -16z m293 -11 c3 -18
8 -42 12 -53 l7 -20 -13 20 c-7 11 -19 26 -26 33 -7 7 -13 19 -13 25 0 7 5 6
11 -3 9 -12 10 -11 6 8 -3 12 -2 22 3 22 4 0 10 -15 13 -32z m44 0 c-3 -8 -6
-5 -6 6 -1 11 2 17 5 13 3 -3 4 -12 1 -19z m1033 0 c0 -6 -6 -5 -15 2 -8 7
-15 14 -15 16 0 2 7 1 15 -2 8 -4 15 -11 15 -16z m55 13 c7 -12 -12 -24 -25
-16 -11 7 -4 25 10 25 5 0 11 -4 15 -9z m932 -18 c7 -10 24 -40 37 -68 13 -27
37 -62 55 -78 30 -26 37 -49 25 -81 -7 -19 -34 -22 -34 -3 0 23 -20 -17 -20
-41 0 -23 -41 -49 -48 -30 -2 5 -15 2 -28 -7 -14 -9 -47 -19 -74 -22 -41 -5
-51 -3 -56 11 -12 31 15 128 44 160 l27 31 -26 -23 c-20 -18 -28 -20 -32 -10
-3 7 -6 4 -6 -8 -1 -14 -52 -74 -136 -160 -100 -102 -129 -127 -108 -94 44 72
133 181 143 175 5 -3 12 0 15 5 4 6 18 15 31 20 13 5 24 17 24 26 0 13 -3 14
-15 4 -30 -25 -14 4 18 33 19 17 25 26 14 23 -18 -6 -18 -5 0 17 46 58 119
137 127 137 5 0 15 -8 23 -17z m-347 -21 c0 -10 16 -50 35 -91 41 -84 41 -91
16 -113 -46 -39 -53 -34 -110 72 -29 55 -51 105 -49 112 4 10 65 34 96 37 6 1
12 -7 12 -17z m59 -61 c17 -41 29 -76 27 -78 -4 -5 -66 134 -66 149 0 18 6 8
39 -71z m-2495 53 c8 -21 8 -24 -3 -24 -5 0 -11 9 -14 20 -6 24 8 27 17 4z
m126 -17 c0 -5 -4 -5 -10 -2 -5 3 -10 14 -10 23 0 15 2 15 10 2 5 -8 10 -19
10 -23z m50 19 c0 -3 -4 -8 -10 -11 -5 -3 -10 -1 -10 4 0 6 5 11 10 11 6 0 10
-2 10 -4z m-224 -39 c-3 -12 -5 -24 -6 -27 -1 -3 -5 6 -11 18 -10 26 -3 46 12
37 5 -3 7 -16 5 -28z m2918 17 c5 -14 4 -15 -9 -4 -17 14 -19 20 -6 20 5 0 12
-7 15 -16z m764 -14 c10 -17 10 -20 -3 -20 -8 0 -15 2 -15 4 0 2 -3 11 -6 20
-9 23 9 20 24 -4z m-3588 -10 c0 -5 -5 -10 -11 -10 -5 0 -7 5 -4 10 3 6 8 10
11 10 2 0 4 -4 4 -10z m367 -22 c-3 -8 -6 -5 -6 6 -1 11 2 17 5 13 3 -3 4 -12
1 -19z m-204 -19 c-9 -9 -12 -7 -10 9 1 14 5 18 11 12 7 -7 6 -14 -1 -21z
m-223 -6 c0 -13 -3 -13 -15 -3 -8 7 -12 16 -9 21 8 13 24 1 24 -18z m88 -1 c2
-12 8 -20 13 -16 6 3 13 -3 16 -15 3 -12 9 -21 14 -21 5 0 9 -5 9 -12 0 -7
-18 6 -40 27 -22 21 -40 45 -40 53 0 22 25 8 28 -16z m622 -7 c13 -14 21 -25
18 -25 -2 0 -15 11 -28 25 -13 14 -21 25 -18 25 2 0 15 -11 28 -25z m1235 14
c11 -17 2 -18 -19 -3 -17 12 -17 14 -4 14 9 0 20 -5 23 -11z m-1380 -8 c3 -5
1 -12 -5 -16 -5 -3 -10 1 -10 9 0 18 6 21 15 7z m1329 0 c4 -5 -20 -11 -53
-13 -44 -2 -57 0 -54 10 6 14 99 17 107 3z m366 -5 c0 -7 16 -46 36 -85 20
-40 34 -74 33 -76 -2 -1 -38 -12 -80 -24 -75 -21 -129 -27 -129 -14 0 8 67
128 98 176 25 38 42 47 42 23z m64 -76 c5 -18 1 -15 -12 10 -11 19 -22 46 -26
60 -5 18 -1 15 12 -10 11 -19 22 -46 26 -60z m-1447 58 c-3 -8 -6 -5 -6 6 -1
11 2 17 5 13 3 -3 4 -12 1 -19z m-377 -2 c0 -2 -7 -9 -15 -16 -13 -11 -14 -10
-9 4 5 14 24 23 24 12z m-430 -52 c9 -28 15 -33 22 -23 7 10 8 6 4 -13 -3 -15
-2 -30 4 -33 5 -3 10 2 10 12 0 15 2 15 10 3 5 -9 5 -19 -2 -27 -15 -18 -73
61 -73 98 0 35 11 28 25 -17z m958 29 c2 -7 -3 -13 -11 -13 -8 0 -17 -7 -20
-14 -3 -8 -24 -20 -46 -26 -23 -6 -41 -15 -41 -21 0 -5 -10 -13 -22 -18 -19
-7 -27 -3 -45 22 -32 43 -29 50 15 45 26 -4 42 -1 51 10 13 13 15 13 21 -2 5
-15 9 -14 30 9 25 26 60 30 68 8z m933 -2 l23 -19 -72 -36 c-40 -20 -95 -52
-121 -71 -27 -19 -51 -35 -55 -35 -3 0 -6 18 -6 39 0 35 4 42 48 69 51 34 130
71 148 72 7 0 22 -8 35 -19z m-251 5 c0 -2 -7 -7 -16 -10 -8 -3 -12 -2 -9 4 6
10 25 14 25 6z m-1330 -31 c0 -8 -4 -15 -10 -15 -5 0 -7 7 -4 15 4 8 8 15 10
15 2 0 4 -7 4 -15z m360 -2 c15 -6 -16 -17 -82 -30 -28 -5 -99 -78 -121 -124
-7 -13 -22 -29 -35 -35 -12 -6 -31 -19 -42 -29 -38 -34 -20 -4 21 34 26 25 35
41 27 43 -18 6 9 60 57 114 l37 42 61 -5 c34 -2 69 -7 77 -10z m920 3 c0 -3
-21 -19 -47 -36 l-48 -31 40 36 c36 32 55 42 55 31z m-846 -41 c9 -14 15 -25
13 -25 -2 0 -14 11 -27 25 -13 14 -19 25 -13 25 6 0 18 -11 27 -25z m336 21
c0 -2 -7 -7 -16 -10 -8 -3 -12 -2 -9 4 6 10 25 14 25 6z m512 -28 c-12 -12
-24 -19 -28 -15 -4 3 4 15 17 26 31 25 39 17 11 -11z m288 7 c-14 -8 -29 -14
-35 -14 -5 0 1 6 15 14 14 8 30 14 35 14 6 0 -1 -6 -15 -14z m695 -49 c0 -51
-3 -62 -13 -54 -9 8 -20 5 -40 -13 l-27 -24 28 31 c50 56 27 60 -26 4 -29 -30
-49 -51 -44 -46 4 6 7 15 7 21 0 10 -32 -24 -142 -152 -34 -40 -66 -73 -71
-73 -15 0 22 43 176 207 83 89 152 162 152 162 0 1 0 -28 0 -63z m-2237 34
c-13 -20 -28 -27 -28 -12 0 10 22 32 32 32 5 0 3 -9 -4 -20z m2654 -15 c16
-14 25 -25 19 -25 -12 0 -69 49 -57 50 4 0 21 -11 38 -25z m-1385 -23 l2 -37
-19 25 c-13 18 -16 28 -8 37 17 21 23 15 25 -25z m332 34 c-2 -2 -15 -9 -29
-16 -23 -12 -24 -12 -11 3 7 10 20 17 29 17 8 0 13 -2 11 -4z m1199 -43 c32
-26 61 -51 67 -55 5 -5 4 -8 -3 -8 -7 0 -39 25 -72 55 -73 67 -68 72 8 8z
m-3058 -7 c-7 -7 -15 -5 -22 3 -10 11 -10 13 0 7 7 -5 12 -1 12 11 0 15 2 16
10 3 6 -9 6 -18 0 -24z m895 24 c-3 -5 -11 -10 -16 -10 -6 0 -7 5 -4 10 3 6
11 10 16 10 6 0 7 -4 4 -10z m-428 -22 c-3 -8 -6 -5 -6 6 -1 11 2 17 5 13 3
-3 4 -12 1 -19z m153 18 c0 -3 -4 -8 -10 -11 -5 -3 -10 -1 -10 4 0 6 5 11 10
11 6 0 10 -2 10 -4z m1615 -51 c-26 -30 -52 -55 -57 -55 -10 0 -1 14 47 73 17
20 36 37 43 37 8 0 -8 -25 -33 -55z m-796 32 c8 -11 5 -19 -16 -38 -14 -13
-23 -18 -19 -11 9 15 -6 16 -22 0 -25 -25 -11 7 15 34 31 33 28 31 42 15z
m765 -15 c-33 -30 -59 -79 -43 -84 10 -3 -31 -68 -44 -68 -5 0 1 14 13 30 12
17 19 30 16 30 -3 0 -18 -18 -32 -40 -15 -22 -29 -38 -32 -36 -2 3 -23 -8 -46
-23 -22 -16 -68 -42 -101 -59 -33 -17 -79 -43 -102 -57 -34 -20 -43 -23 -43
-11 0 8 9 24 20 34 11 10 18 25 15 33 -6 16 81 159 96 159 5 0 8 3 7 8 -4 14
23 53 33 46 6 -4 6 -11 -2 -20 -9 -11 -8 -14 4 -14 9 0 18 4 21 9 8 12 207 85
246 90 3 0 -9 -12 -26 -27z m96 3 c-7 -9 -15 -13 -18 -10 -3 2 1 11 8 20 7 9
15 13 18 10 3 -2 -1 -11 -8 -20z m525 -82 c-4 -60 -12 -112 -17 -118 -7 -7 -9
-2 -5 15 3 14 9 67 13 118 3 50 9 92 11 92 3 0 2 -48 -2 -107z m-2235 93 c0
-2 -7 -7 -16 -10 -8 -3 -12 -2 -9 4 6 10 25 14 25 6z m-626 -22 c5 -14 4 -15
-9 -4 -17 14 -19 20 -6 20 5 0 12 -7 15 -16z m2930 -63 c-12 -125 -16 -147
-24 -126 -4 11 -5 62 -2 113 4 76 7 90 18 81 10 -8 12 -27 8 -68z m-2854 60
c0 -6 -4 -13 -10 -16 -5 -3 -10 1 -10 9 0 9 5 16 10 16 6 0 10 -4 10 -9z
m2660 3 c0 -25 -210 -203 -246 -208 -8 -1 -36 -23 -62 -48 -91 -87 -248 -198
-202 -143 10 12 10 15 0 15 -13 0 3 16 100 98 30 25 75 65 100 87 25 23 68 59
95 80 50 37 49 37 -10 -19 -33 -31 -109 -98 -168 -148 -59 -50 -106 -93 -103
-95 11 -11 360 290 386 332 14 23 32 36 58 43 48 13 52 13 52 6z m-2591 -30
c-14 -18 -24 -11 -15 11 3 9 11 13 16 10 8 -5 7 -11 -1 -21z m181 -39 c-28
-81 -63 -137 -105 -169 -57 -44 -62 -25 -6 22 28 24 51 52 51 62 0 10 5 22 10
25 6 3 10 14 10 24 0 10 9 26 20 36 11 10 20 26 20 35 0 17 10 33 17 27 2 -2
-6 -30 -17 -62z m1200 51 c6 -8 18 -12 26 -9 19 7 18 -7 -3 -36 -10 -15 -12
-21 -3 -16 11 7 12 -4 7 -56 -4 -35 -10 -74 -13 -86 -5 -19 -2 -23 16 -23 13
0 20 -5 16 -12 -2 -7 -10 -32 -17 -55 -6 -24 -15 -43 -20 -43 -5 0 -9 4 -9 9
0 5 -9 11 -20 14 -15 4 -20 14 -21 39 -1 23 -3 26 -6 11 -6 -30 -15 -29 -52 6
-16 15 -33 26 -35 23 -12 -11 -25 49 -16 73 6 16 6 25 0 25 -5 0 -7 7 -4 15 9
21 25 19 17 -2 -4 -12 5 -8 25 11 18 17 32 32 32 34 0 3 -9 -3 -20 -13 -16
-15 -20 -15 -20 -3 0 15 86 108 100 108 4 0 13 -6 20 -14z m1545 -7 c11 -17
-1 -21 -15 -4 -8 9 -8 15 -2 15 6 0 14 -5 17 -11z m-509 -34 c-21 -19 -43 -32
-47 -29 -5 3 -55 -39 -111 -93 -152 -144 -215 -201 -193 -174 11 13 93 93 183
177 112 107 169 154 185 154 20 -1 18 -4 -17 -35z m-661 15 c-3 -5 -16 -15
-28 -21 -21 -10 -21 -9 2 10 25 23 36 27 26 11z m365 -20 c-22 -31 -40 -46
-40 -34 0 8 51 64 58 64 2 0 -6 -13 -18 -30z m854 -2 c-4 -6 -10 -5 -15 3 -14
22 -10 33 6 19 8 -7 12 -17 9 -22z m-2934 2 c-6 -11 -13 -20 -16 -20 -2 0 0 9
6 20 6 11 13 20 16 20 2 0 0 -9 -6 -20z m-140 -5 c7 -9 8 -15 2 -15 -5 0 -12
7 -16 15 -3 8 -4 15 -2 15 2 0 9 -7 16 -15z m2700 6 c0 -5 -27 -35 -60 -66
-32 -32 -58 -61 -57 -64 1 -3 -1 -6 -4 -6 -3 0 -14 -7 -25 -15 -10 -8 6 13 36
48 30 35 64 74 74 87 20 25 36 32 36 16z m576 -33 l29 -33 -32 29 c-31 28 -38
36 -30 36 2 0 16 -15 33 -32z m-129 2 c18 -10 47 -24 65 -29 29 -9 27 -10 -17
-5 -58 6 -95 22 -95 41 0 18 9 16 47 -7z m-2634 -50 c3 -10 -1 -24 -9 -31 -11
-9 -14 -6 -14 20 0 34 15 42 23 11z m2246 -22 c-1 -35 -2 -38 -8 -18 -7 23 -4
60 5 60 2 0 4 -19 3 -42z m268 -65 c-2 -21 -4 -4 -4 37 0 41 2 58 4 38 2 -21
2 -55 0 -75z m366 90 c26 -14 29 -18 13 -21 -10 -2 -28 5 -39 17 -26 25 -17
27 26 4z m-2671 -25 c-6 -7 -25 -22 -44 -32 -39 -23 -32 -13 14 20 38 26 45
29 30 12z m1948 2 c0 -5 -5 -10 -11 -10 -5 0 -7 5 -4 10 3 6 8 10 11 10 2 0 4
-4 4 -10z m-2354 -54 c-8 -20 -19 -36 -25 -36 -5 0 0 18 12 39 26 48 34 46 13
-3z m151 22 c-3 -8 -6 -5 -6 6 -1 11 2 17 5 13 3 -3 4 -12 1 -19z m2058 2
c-10 -11 -34 -29 -54 -41 -42 -24 -33 -13 24 30 47 36 55 39 30 11z m976 -6
c17 -8 29 -18 26 -20 -6 -6 -67 23 -67 31 0 8 10 6 41 -11z m-199 -131 c5
-190 -3 -223 -18 -73 -7 69 -15 144 -19 168 -7 38 -6 42 13 42 19 0 20 -7 24
-137z m-2452 112 c-7 -9 -15 -13 -17 -11 -7 7 7 26 19 26 6 0 6 -6 -2 -15z
m930 -5 c0 -15 -7 -20 -25 -20 -29 0 -33 15 -7 29 25 15 32 13 32 -9z m1594
-23 c3 -12 5 -38 5 -57 -1 -34 -1 -34 -14 13 -7 26 -18 54 -25 62 -9 11 -7 12
9 8 10 -3 22 -15 25 -26z m-1984 -72 c30 -23 63 -44 73 -48 18 -7 21 -24 11
-51 -5 -13 -24 -16 -106 -16 -98 0 -99 0 -92 23 3 12 14 31 23 42 15 18 15 19
-1 6 -10 -7 -18 -10 -18 -6 0 5 8 17 18 28 12 15 13 18 2 12 -9 -5 -7 1 5 15
18 21 18 23 2 17 -15 -6 -16 -4 -7 14 12 22 13 22 90 -36z m367 49 c-3 -3 -12
-4 -19 -1 -8 3 -5 6 6 6 11 1 17 -2 13 -5z m773 3 c0 -2 -17 -19 -37 -38 l-38
-34 34 38 c33 34 41 42 41 34z m-2053 -29 c-3 -8 -6 -5 -6 6 -1 11 2 17 5 13
3 -3 4 -12 1 -19z m1213 18 c0 -7 -82 -57 -87 -53 -2 3 15 17 39 31 45 27 48
28 48 22z m30 -31 c0 -14 1 -28 1 -32 2 -10 -160 -104 -189 -109 -30 -6 -25
17 6 31 12 5 22 15 22 21 0 11 137 113 153 114 4 0 7 -11 7 -25z m-1450 1 c0
-2 -8 -10 -17 -17 -16 -13 -17 -12 -4 4 13 16 21 21 21 13z m295 -268 l2 -263
-13 130 c-12 118 -10 414 3 401 3 -3 6 -123 8 -268z m2049 248 c-3 -9 -13 -16
-22 -16 -13 0 -12 3 3 20 20 23 29 21 19 -4z m-2339 -23 c-41 -30 -59 -34 -25
-5 19 16 37 28 40 25 3 -2 -4 -11 -15 -20z m1295 -7 c0 -2 -8 -10 -17 -17 -16
-13 -17 -12 -4 4 13 16 21 21 21 13z m-1140 -31 c0 -8 -4 -15 -10 -15 -5 0
-10 7 -10 15 0 8 5 15 10 15 6 0 10 -7 10 -15z m-395 -4 c3 -5 1 -12 -5 -16
-5 -3 -10 1 -10 9 0 18 6 21 15 7z m647 -13 c-6 -6 -15 -8 -19 -4 -4 4 -1 11
7 16 19 12 27 3 12 -12z m1048 -2 c0 -2 -7 -7 -16 -10 -8 -3 -12 -2 -9 4 6 10
25 14 25 6z m-1627 -41 c-11 -8 -46 -34 -79 -58 -32 -25 -60 -44 -62 -42 -10
9 22 46 43 51 14 3 33 16 43 28 25 32 66 58 71 45 2 -6 -6 -17 -16 -24z m1587
20 c0 -2 -10 -9 -22 -15 -22 -11 -22 -10 -4 4 21 17 26 19 26 11z m-1328 -27
c-7 -7 -12 -8 -12 -2 0 14 12 26 19 19 2 -3 -1 -11 -7 -17z m1368 18 c0 -2 -8
-10 -17 -17 -16 -13 -17 -12 -4 4 13 16 21 21 21 13z m-415 -16 c-7 -12 7 -13
21 -2 5 4 -6 -8 -26 -25 -47 -44 -26 -42 29 2 40 32 61 42 61 31 0 -2 -16 -14
-36 -26 -19 -12 -33 -25 -30 -28 3 -2 12 1 21 8 9 7 18 11 20 8 3 -3 -22 -26
-55 -52 -33 -26 -60 -43 -60 -37 0 5 16 22 35 37 20 15 33 29 30 32 -3 3 -15
-4 -28 -16 -26 -25 -46 -30 -27 -7 10 12 10 15 -1 15 -8 1 -4 9 11 21 14 12
26 25 26 30 3 16 4 19 10 19 3 0 2 -4 -1 -10z m140 0 c9 -15 -13 -51 -54 -88
l-36 -33 39 25 c22 14 42 24 44 22 2 -3 -7 -37 -21 -78 -14 -40 -33 -111 -41
-158 -9 -47 -18 -93 -20 -102 -3 -11 13 -4 48 24 28 22 53 44 54 49 5 11 132
106 206 154 l53 34 1 -29 c1 -25 -9 -35 -66 -72 -36 -24 -105 -72 -152 -107
-47 -35 -76 -53 -65 -41 11 12 61 53 110 90 125 94 169 130 160 130 -4 0 -48
-30 -98 -67 -50 -36 -97 -66 -103 -66 -7 0 -11 -3 -9 -7 2 -4 -16 -23 -41 -44
-25 -21 -57 -56 -71 -77 -19 -29 -29 -36 -34 -27 -6 8 -9 9 -9 2 0 -7 -9 -14
-21 -17 -17 -5 -25 3 -45 46 -13 29 -24 60 -24 69 0 9 -4 20 -10 23 -17 11
-11 71 11 99 11 14 16 26 11 26 -6 0 -13 -6 -15 -12 -3 -7 -6 -8 -6 -3 -1 6
32 48 73 95 79 90 93 117 30 53 -21 -21 -42 -37 -47 -35 -5 1 -6 -2 -2 -8 4
-6 -7 -25 -24 -42 -17 -18 -31 -29 -31 -26 0 27 29 64 93 118 46 38 73 68 70
76 -6 16 32 20 42 4z m-50 -20 c-3 -5 -12 -10 -18 -10 -7 0 -6 4 3 10 19 12
23 12 15 0z m325 -39 c0 -48 -1 -50 -43 -70 -59 -29 -171 -104 -237 -160 -32
-27 -51 -38 -47 -28 4 10 7 27 7 38 0 11 10 24 23 29 12 5 32 20 45 33 32 36
235 203 250 206 1 1 2 -21 2 -48z m-58 26 c-6 -7 -30 -23 -54 -36 -50 -28 -41
-16 17 23 44 29 52 32 37 13z m-1843 -29 c-9 -16 -14 -19 -17 -9 -2 7 2 17 9
22 20 13 21 11 8 -13z m3794 -8 c3 -13 0 -20 -9 -20 -8 0 -14 10 -14 26 0 28
15 25 23 -6z m-3323 16 c0 -2 -8 -10 -17 -17 -16 -13 -17 -12 -4 4 13 16 21
21 21 13z m877 -43 c-3 -10 -5 -2 -5 17 0 19 2 27 5 18 2 -10 2 -26 0 -35z
m2320 10 c-3 -10 -5 -4 -5 12 0 17 2 24 5 18 2 -7 2 -21 0 -30z m-2772 7 c-3
-5 -16 -15 -28 -21 -19 -9 -19 -8 3 10 28 23 34 26 25 11z m-299 -35 c-3 -9
-11 -13 -16 -10 -8 5 -7 11 1 21 14 18 24 11 15 -11z m2544 11 c0 -2 -7 -6
-15 -10 -8 -3 -15 -1 -15 4 0 6 7 10 15 10 8 0 15 -2 15 -4z m505 -44 c-146
-76 -220 -135 -397 -315 -93 -93 -168 -167 -168 -162 0 4 67 78 149 164 81 86
153 166 159 178 13 24 156 115 246 155 100 45 108 31 11 -20z m-85 19 c0 -6
-4 -13 -10 -16 -5 -3 -10 1 -10 9 0 9 5 16 10 16 6 0 10 -4 10 -9z m-1850 -4
c0 -1 -22 -25 -50 -52 -32 -32 -50 -44 -50 -33 0 9 21 32 48 52 47 35 52 39
52 33z m647 -23 c-3 -3 -12 -4 -19 -1 -8 3 -5 6 6 6 11 1 17 -2 13 -5z m-1894
-21 c-7 -2 -21 -2 -30 0 -10 3 -4 5 12 5 17 0 24 -2 18 -5z m-65 -10 c-10 -2
-26 -2 -35 0 -10 3 -2 5 17 5 19 0 27 -2 18 -5z m507 -23 c-3 -5 -16 -15 -28
-21 -19 -9 -19 -8 3 10 28 23 34 26 25 11z m1525 2 c0 -5 -7 -17 -15 -28 -14
-19 -14 -19 -15 2 0 11 3 24 7 27 9 10 23 9 23 -1z m120 -39 c-11 -17 -11 -17
-6 0 3 10 6 24 7 30 0 9 2 9 5 0 3 -7 0 -20 -6 -30z m-1963 2 c-28 -25 -47
-32 -47 -17 0 7 56 40 70 41 3 0 -8 -11 -23 -24z m1363 -42 l-1 -58 -57 -39
c-31 -22 -93 -64 -137 -95 -44 -30 -105 -77 -134 -103 -30 -26 -58 -48 -62
-48 -4 0 -12 13 -19 29 -16 40 -4 59 75 115 35 26 70 56 75 67 6 11 16 16 22
13 6 -4 8 -3 4 4 -6 10 205 172 225 172 5 0 9 -26 9 -57z m-1002 24 c-46 -38
-91 -62 -86 -46 4 12 94 69 108 68 3 0 -7 -10 -22 -22z m2766 9 c-3 -8 -22
-27 -42 -42 l-37 -27 40 41 c43 46 47 49 39 28z m-134 -11 c-7 -9 -15 -13 -19
-10 -3 3 1 10 9 15 21 14 24 12 10 -5z m257 -7 c-3 -8 -6 -5 -6 6 -1 11 2 17
5 13 3 -3 4 -12 1 -19z m-2777 8 c0 -2 -7 -7 -16 -10 -8 -3 -12 -2 -9 4 6 10
25 14 25 6z m55 -16 c3 -5 -1 -10 -10 -10 -9 0 -13 5 -10 10 3 6 8 10 10 10 2
0 7 -4 10 -10z m1305 -115 c0 -5 20 -25 43 -42 23 -18 58 -47 77 -64 l35 -31
-36 25 -36 26 -12 -26 c-6 -14 -14 -23 -17 -20 -3 3 -1 15 6 26 11 22 3 35
-43 70 -15 12 -20 11 -39 -5 -21 -19 -21 -19 -14 10 6 24 3 33 -16 50 -13 12
-18 17 -11 12 27 -18 26 5 -2 37 -16 17 -8 12 18 -13 25 -25 46 -49 47 -55z
m-1145 75 c3 -5 1 -10 -4 -10 -6 0 -11 5 -11 10 0 6 2 10 4 10 3 0 8 -4 11
-10z m-660 -20 c-3 -5 -11 -10 -16 -10 -6 0 -7 5 -4 10 3 6 11 10 16 10 6 0 7
-4 4 -10z m684 -36 c17 -48 6 -56 -13 -9 -18 43 -19 45 -8 45 4 0 14 -16 21
-36z m2150 20 c-16 -19 -125 -104 -134 -104 -15 0 28 46 77 81 56 40 80 50 57
23z m328 -26 c-3 -8 -6 -5 -6 6 -1 11 2 17 5 13 3 -3 4 -12 1 -19z m-2529 -13
c-3 -3 -9 2 -12 12 -6 14 -5 15 5 6 7 -7 10 -15 7 -18z m779 -7 c-3 -8 -6 -5
-6 6 -1 11 2 17 5 13 3 -3 4 -12 1 -19z m-804 -8 c3 -11 3 -20 1 -20 -2 0 -8
9 -14 20 -6 11 -7 20 -2 20 6 0 12 -9 15 -20z m1054 -2 c-3 -8 -6 -5 -6 6 -1
11 2 17 5 13 3 -3 4 -12 1 -19z m256 -3 c-3 -9 -8 -14 -10 -11 -3 3 -2 9 2 15
9 16 15 13 8 -4z m112 -31 c-23 -17 -32 -10 -15 11 7 8 17 12 23 8 6 -4 3 -11
-8 -19z m-1909 -79 c-4 -19 -11 -37 -16 -40 -11 -7 -13 28 -4 75 6 27 9 29 16
15 6 -9 7 -32 4 -50z m1214 61 c0 -2 -8 -10 -17 -17 -16 -13 -17 -12 -4 4 13
16 21 21 21 13z m765 -16 c-16 -11 -34 -20 -40 -20 -5 0 4 9 20 20 17 11 35
20 40 20 6 0 -3 -9 -20 -20z m-1635 -21 c0 -6 -4 -7 -10 -4 -5 3 -10 11 -10
16 0 6 5 7 10 4 6 -3 10 -11 10 -16z m2154 -14 c-9 -14 -19 -23 -22 -20 -5 4
26 45 35 45 2 0 -4 -11 -13 -25z m-1857 -7 c-3 -8 -6 -5 -6 6 -1 11 2 17 5 13
3 -3 4 -12 1 -19z m80 -20 c-3 -8 -6 -5 -6 6 -1 11 2 17 5 13 3 -3 4 -12 1
-19z m1158 12 c-3 -5 -12 -10 -18 -10 -7 0 -6 4 3 10 19 12 23 12 15 0z m345
6 c0 -9 -91 -79 -95 -74 -3 3 16 21 41 42 47 36 54 40 54 32z m917 -18 c-3 -8
-6 -5 -6 6 -1 11 2 17 5 13 3 -3 4 -12 1 -19z m-3567 8 c0 -2 -7 -7 -16 -10
-8 -3 -12 -2 -9 4 6 10 25 14 25 6z m2151 -29 c-10 -9 -11 -8 -5 6 3 10 9 15
12 12 3 -3 0 -11 -7 -18z m98 -23 c-14 -18 -24 -11 -15 11 3 9 11 13 16 10 8
-5 7 -11 -1 -21z m-2134 -4 c-3 -5 -10 -10 -16 -10 -5 0 -9 5 -9 10 0 6 7 10
16 10 8 0 12 -4 9 -10z"/>
<path d="M1461 2593 c7 -12 15 -20 18 -17 3 2 -3 12 -13 22 -17 16 -18 16 -5
-5z"/>
<path d="M1568 2503 c7 -3 16 -2 19 1 4 3 -2 6 -13 5 -11 0 -14 -3 -6 -6z"/>
<path d="M1870 2480 c6 -11 13 -20 16 -20 2 0 0 9 -6 20 -6 11 -13 20 -16 20
-2 0 0 -9 6 -20z"/>
<path d="M1621 2392 c-8 -18 -22 -39 -33 -46 -19 -14 -19 -15 6 -83 l25 -68
-6 53 c-4 38 -1 63 11 91 10 21 16 49 14 62 -3 23 -4 22 -17 -9z"/>
<path d="M1855 1940 c3 -5 14 -10 23 -10 15 0 15 2 2 10 -20 13 -33 13 -25 0z"/>
<path d="M1498 2843 c6 -2 18 -2 25 0 6 3 1 5 -13 5 -14 0 -19 -2 -12 -5z"/>
<path d="M1370 1300 c0 -5 7 -7 15 -4 8 4 15 8 15 10 0 2 -7 4 -15 4 -8 0 -15
-4 -15 -10z"/>
<path d="M2771 1447 c-13 -21 -12 -21 5 -5 10 10 16 20 13 22 -3 3 -11 -5 -18
-17z"/>
<path d="M1679 1093 c-13 -16 -12 -17 4 -4 16 13 21 21 13 21 -2 0 -10 -8 -17
-17z"/>
<path d="M2375 1010 c-10 -11 -16 -22 -14 -24 2 -2 12 7 22 20 22 29 17 32 -8
4z"/>
<path d="M1614 907 c-8 -19 -7 -23 8 -23 12 0 18 8 18 23 0 29 -12 29 -26 0z"/>
<path d="M1585 190 c3 -5 8 -10 11 -10 2 0 4 5 4 10 0 6 -5 10 -11 10 -5 0 -7
-4 -4 -10z"/>
<path d="M1124 3763 c-30 -33 -32 -38 -17 -44 10 -3 27 0 38 7 19 12 24 14 42
14 4 0 2 5 -4 11 -9 9 -18 8 -37 -5 -34 -21 -33 -9 1 26 15 15 23 28 19 28 -5
0 -24 -17 -42 -37z"/>
<path d="M1119 3673 c-76 -98 -124 -169 -105 -154 25 21 160 201 154 206 -3 3
-25 -21 -49 -52z"/>
<path d="M3611 2342 c37 -30 80 -46 73 -27 -3 7 -18 18 -32 23 -15 6 -36 13
-47 18 -15 5 -13 2 6 -14z"/>
<path d="M3797 2275 c-9 -23 11 -28 23 -5 8 16 8 20 -4 20 -7 0 -16 -7 -19
-15z"/>
<path d="M2219 643 c-13 -16 -12 -17 4 -4 16 13 21 21 13 21 -2 0 -10 -8 -17
-17z"/>
<path d="M1960 10 c0 -5 5 -10 11 -10 5 0 7 5 4 10 -3 6 -8 10 -11 10 -2 0 -4
-4 -4 -10z"/>
<path d="M2015 10 c-3 -5 -2 -10 4 -10 5 0 13 5 16 10 3 6 2 10 -4 10 -5 0
-13 -4 -16 -10z"/>
</g>
</svg>
